<?xml version="1.0" encoding="UTF-8"?>
<svg id="_圖層_1" data-name="圖層 1" xmlns="http://www.w3.org/2000/svg" viewBox="0 0 245.76 245.76">
  <defs>
    <style>
      .cls-1 {
        fill: #22a696;
      }
    </style>
  </defs>
  <path class="cls-1" d="M181.88,68.95c3.74.06,7.12,1.01,9.74,3.81.75.81,2.67,3.41,2.08,4.42l-66.15,56.03c-2.2,1.94-5.01,2.59-7.72,1.25-22.83-19.04-45.51-38.32-68.19-57.56,1.35-4.17,5.21-6.98,9.43-7.77,40.24.66,80.6-.8,120.8-.19ZM103.76,89.45c.37.37,1.16.77,1.71.81h34.57c2.2-.31,3.51-2.52,2.37-4.55-.84-1.51-2.33-1.45-3.82-1.7-9.89.38-20.15-.52-29.99,0-.92.05-2.76.14-3.55.29-2.24.45-2.79,3.65-1.29,5.14ZM125.76,109.93v-11.4c0-.29-1.15-1.48-1.5-1.62-1.58-.64-4.5.35-4.5,2.1v10.92c-.42.1-.48-.17-.72-.36-2.16-1.66-6-7.58-9.01-4.21-2.13,2.38.29,4.44,1.93,6.02,2.21,2.13,5.2,4.91,7.56,6.84,1.6,1.31,2.56,2.35,4.72,1.36,1.34-.61,7.37-6.31,8.84-7.71.81-.77,2.9-2.64,3.13-3.59.49-2.03-.96-4-3.11-3.85-1.65.11-4.31,3.29-5.67,4.43-.22.18-1.52,1.26-1.68,1.08Z"/>
  <path class="cls-1" d="M142.44,128.43l49.58,43.05.23.49c-1.51,2.4-4.22,3.81-6.91,4.62-41.65.46-83.48.56-125.11-.05-2.78-.77-5.28-2.2-6.94-4.59l49.6-43.27.78.08,13.85,11.59c3.68,2.01,8.45,1.69,11.81-.81l13.1-11.12Z"/>
  <polygon class="cls-1" points="195.12 84.25 195.12 165.85 147.34 124.45 195.12 84.25"/>
  <polygon class="cls-1" points="50.64 84.25 98.4 124.69 50.64 165.85 50.64 84.25"/>
</svg>